HIERARCHY
ROOT Hips
{
	OFFSET 0.000000 0.000000 0.000000 
	CHANNELS 6 Xposition Yposition Zposition Zrotation Xrotation Yrotation
	JOINT LeftUpLeg
	{
		OFFSET 2.390000 -0.997500 0.003131 
		CHANNELS 3 Zrotation Xrotation Yrotation
		JOINT LeftUpLegRoll
		{
			OFFSET -0.008228 -5.368025 -0.050000 
			CHANNELS 3 Zrotation Xrotation Yrotation
			JOINT LeftLeg
			{
				OFFSET 0.008228 -5.304475 -0.040000 
				CHANNELS 3 Zrotation Xrotation Yrotation
				JOINT LeftLegRoll
				{
					OFFSET 0.008266 -8.023550 -0.789272 
					CHANNELS 3 Zrotation Xrotation Yrotation
					JOINT LeftFoot
					{
						OFFSET -0.008285 -2.447005 -0.176461 
						CHANNELS 3 Zrotation Xrotation Yrotation
						End Site
						{
							OFFSET -0.006362 -1.603547 3.533050 
						}
					}
				}
			}
		}
	}
	JOINT RightUpLeg
	{
		OFFSET -2.390000 -0.997500 0.003131 
		CHANNELS 3 Zrotation Xrotation Yrotation
		JOINT RightUpLegRoll
		{
			OFFSET 0.007500 -5.367500 -0.050000 
			CHANNELS 3 Zrotation Xrotation Yrotation
			JOINT RightLeg
			{
				OFFSET -0.007500 -5.305000 -0.040000 
				CHANNELS 3 Zrotation Xrotation Yrotation
				JOINT RightLegRoll
				{
					OFFSET 0.005000 -8.024050 -0.790258 
					CHANNELS 3 Zrotation Xrotation Yrotation
					JOINT RightFoot
					{
						OFFSET 0.020000 -2.446472 -0.175476 
						CHANNELS 3 Zrotation Xrotation Yrotation
						End Site
						{
							OFFSET 0.010000 -1.603528 3.533050 
						}
					}
				}
			}
		}
	}
	JOINT Spine
	{
		OFFSET 0.000120 2.857200 0.095838 
		CHANNELS 3 Zrotation Xrotation Yrotation
		JOINT Spine1
		{
			OFFSET 0.000000 3.491675 -0.016748 
			CHANNELS 3 Zrotation Xrotation Yrotation
			JOINT Spine2
			{
				OFFSET 0.000000 2.811225 -0.017190 
				CHANNELS 3 Zrotation Xrotation Yrotation
				JOINT Spine3
				{
					OFFSET 0.000000 3.297825 -0.158152 
					CHANNELS 3 Zrotation Xrotation Yrotation
					JOINT LeftShoulder
					{
						OFFSET 2.247500 -0.945430 -0.255617 
						CHANNELS 3 Zrotation Xrotation Yrotation
						JOINT LeftArm
						{
							OFFSET 2.422500 0.192500 0.242500 
							CHANNELS 3 Zrotation Xrotation Yrotation
							JOINT LeftArmRoll
							{
								OFFSET 3.011150 -0.056125 -0.149282 
								CHANNELS 3 Zrotation Xrotation Yrotation
								JOINT LeftForeArm
								{
									OFFSET 3.544950 0.021691 -0.254337 
									CHANNELS 3 Zrotation Xrotation Yrotation
									JOINT LeftForeArmRoll
									{
										OFFSET 3.242425 0.024099 -0.017220 
										CHANNELS 3 Zrotation Xrotation Yrotation
										End Site
										{
											OFFSET 3.371325 0.031393 -0.007218 
										}
									}
								}
							}
						}
					}
					JOINT RightShoulder
					{
						OFFSET -2.247500 -0.945430 -0.255617 
						CHANNELS 3 Zrotation Xrotation Yrotation
						JOINT RightArm
						{
							OFFSET -2.422500 0.192500 0.242500 
							CHANNELS 3 Zrotation Xrotation Yrotation
							JOINT RightArmRoll
							{
								OFFSET -3.062100 -0.062702 -0.132500 
								CHANNELS 3 Zrotation Xrotation Yrotation
								JOINT RightForeArm
								{
									OFFSET -3.498150 0.035499 -0.338573 
									CHANNELS 3 Zrotation Xrotation Yrotation
									JOINT RightForeArmRoll
									{
										OFFSET -3.278950 0.026904 0.120309 
										CHANNELS 3 Zrotation Xrotation Yrotation
										End Site
										{
											OFFSET -3.349925 0.018716 0.058049 
										}
									}
								}
							}
						}
					}
					JOINT Neck
					{
						OFFSET 0.000000 1.108613 -0.101302 
						CHANNELS 3 Zrotation Xrotation Yrotation
						End Site
						{
							OFFSET 0.000000 1.617325 0.410885 
						}
					}
				}
			}
		}
	}
}
MOTION
Frames: 6
Frame Time: 0.041667
6.282325 23.975149 -31.249500 -5.185880 7.486040 6.216410 4.924440 4.555090 -0.459366 0.000000 -0.000000 0.000000 0.226625 -1.365080 0.110784 0.000000 -0.000000 0.000000 -3.427400 -18.017300 -4.924410 2.570520 -23.013500 16.137800 0.000000 0.000000 0.000000 7.137900 19.249300 -2.411220 -0.000000 0.000000 0.000000 -11.171700 10.583200 -7.740680 3.600680 1.957900 -0.914217 -0.000000 0.000000 -0.000000 0.000000 0.000000 -0.000000 0.000000 -0.000000 0.000000 -18.725599 -3.018880 -8.034200 140.550003 71.896202 167.554001 0.000000 -0.000000 0.000000 49.572601 -46.874699 2.808960 -0.000000 0.000000 -0.000000 22.055300 1.788470 4.408070 -143.507004 61.117500 -173.548004 -0.000000 0.000000 0.000000 -26.107700 -66.054497 13.167700 -0.000000 0.000000 0.000000 0.000000 0.000000 0.000000 
6.250775 23.938774 -31.099001 -5.448980 8.431660 6.597910 5.083040 4.354340 -0.277764 0.000000 -0.000000 0.000000 0.453445 -1.978790 0.082493 0.000000 -0.000000 0.000000 -3.186170 -18.930599 -5.041550 2.862370 -23.935801 15.847700 0.000000 0.000000 0.000000 7.941640 20.395300 -2.792100 -0.000000 0.000000 0.000000 -12.570200 11.586700 -8.309700 3.775570 1.930110 -0.934264 -0.000000 0.000000 -0.000000 0.000000 0.000000 -0.000000 0.000000 -0.000000 0.000000 -18.811100 -3.016260 -7.910290 140.610992 70.215401 167.317001 0.000000 -0.000000 0.000000 53.647800 -52.215401 2.785240 -0.000000 0.000000 -0.000000 22.075001 1.801090 4.225370 -146.274002 60.356300 -170.843994 -0.000000 0.000000 0.000000 -26.621300 -66.098602 13.136300 -0.000000 0.000000 0.000000 0.000000 0.000000 0.000000 
6.176200 23.880075 -30.843000 -5.676630 9.337570 6.842630 5.281120 4.526080 -0.406759 0.000000 -0.000000 0.000000 0.703230 -2.631970 0.063814 0.000000 -0.000000 0.000000 -2.371620 -19.392799 -4.340430 3.030160 -24.974501 15.285900 0.000000 0.000000 0.000000 8.927150 21.591600 -3.265260 -0.000000 0.000000 0.000000 -13.956600 11.833200 -8.624790 3.961360 1.961220 -0.922169 -0.000000 0.000000 -0.000000 0.000000 0.000000 -0.000000 0.000000 -0.000000 0.000000 -18.782801 -2.984620 -7.631190 139.744003 68.008797 168.354996 0.000000 -0.000000 0.000000 58.921799 -58.294899 2.798000 -0.000000 0.000000 -0.000000 22.075199 1.802590 4.200450 -149.039993 59.784901 -168.153000 -0.000000 0.000000 0.000000 -26.065701 -68.217796 14.779700 -0.000000 0.000000 0.000000 0.000000 0.000000 0.000000 
6.086575 23.788025 -30.509750 -5.784600 10.176500 6.709680 5.386860 4.632630 -0.419962 0.000000 -0.000000 0.000000 0.760216 -2.753090 0.080796 0.000000 -0.000000 0.000000 -1.316330 -19.621099 -3.551040 2.820030 -26.009199 15.214700 0.000000 0.000000 0.000000 10.429100 22.793699 -3.951940 -0.000000 0.000000 0.000000 -14.354400 11.375100 -8.687170 4.112710 2.013720 -0.871853 -0.000000 0.000000 -0.000000 0.000000 0.000000 -0.000000 0.000000 -0.000000 0.000000 -18.674801 -2.942640 -7.343320 138.548004 66.070900 169.899002 0.000000 -0.000000 0.000000 63.812599 -65.240997 2.872960 -0.000000 0.000000 -0.000000 22.081800 1.796640 4.308990 -150.934006 59.459999 -166.404007 -0.000000 0.000000 0.000000 -25.580700 -69.642998 16.098900 -0.000000 0.000000 0.000000 0.000000 0.000000 0.000000 
5.963800 23.678625 -30.064501 -6.161420 11.215900 6.650740 5.978010 4.521760 -0.703658 0.000000 -0.000000 0.000000 0.734545 -2.664150 0.118725 0.000000 -0.000000 0.000000 -0.293851 -20.039301 -2.791150 2.497060 -27.302099 15.213100 0.000000 0.000000 0.000000 12.884000 24.699800 -5.106020 -0.000000 0.000000 0.000000 -14.906700 10.239500 -8.586530 4.445320 2.042470 -0.812075 -0.000000 0.000000 -0.000000 0.000000 0.000000 -0.000000 0.000000 -0.000000 0.000000 -18.413099 -2.882740 -7.056450 137.171005 64.742302 171.423004 0.000000 -0.000000 0.000000 67.398399 -71.450897 3.309040 -0.000000 0.000000 -0.000000 22.120899 1.786220 4.530920 -151.772003 59.625702 -165.774994 -0.000000 0.000000 0.000000 -24.753599 -70.810402 17.353500 -0.000000 0.000000 0.000000 0.000000 0.000000 0.000000 
5.816650 23.522150 -29.488501 -6.644580 12.528300 6.325560 6.705340 4.706100 -0.845137 0.000000 -0.000000 0.000000 0.777597 -2.788070 0.140399 0.000000 -0.000000 0.000000 0.619118 -19.851999 -1.944830 2.209960 -28.830700 15.658300 0.000000 0.000000 0.000000 16.261999 26.676500 -6.772800 -0.000000 0.000000 0.000000 -15.676200 9.319360 -8.429630 4.896240 2.042210 -0.738019 -0.000000 0.000000 -0.000000 0.000000 0.000000 -0.000000 0.000000 -0.000000 0.000000 -18.059000 -2.809120 -6.742220 135.865005 63.422699 172.552994 0.000000 -0.000000 0.000000 70.022797 -76.208900 4.027900 -0.000000 0.000000 -0.000000 22.190800 1.775040 4.807570 -152.011002 60.236500 -165.856995 -0.000000 0.000000 0.000000 -23.812099 -71.917099 18.746000 -0.000000 0.000000 0.000000 0.000000 0.000000 0.000000 
